<?xml version="1.0" standalone="no"?>
<!DOCTYPE svg PUBLIC "-//W3C//DTD SVG 20010904//EN"
 "http://www.w3.org/TR/2001/REC-SVG-20010904/DTD/svg10.dtd">
<svg version="1.0" xmlns="http://www.w3.org/2000/svg"
 width="512.000000pt" height="512.000000pt" viewBox="0 0 512.000000 512.000000"
 preserveAspectRatio="xMidYMid meet">

<g transform="translate(0.000000,512.000000) scale(0.100000,-0.100000)"
fill="#000000" stroke="none">
<path d="M759 4935 c-15 -8 -30 -22 -34 -32 -4 -10 -28 -110 -54 -221 l-46
-204 -145 -48 c-80 -27 -160 -54 -178 -61 l-32 -13 0 -267 0 -266 178 -7 c627
-25 1005 -124 1442 -379 84 -49 95 -53 98 -36 7 42 -57 250 -97 315 -26 42
-192 152 -355 234 -208 105 -468 180 -679 197 -43 3 -80 9 -82 13 -7 11 95 28
242 42 273 25 578 -34 836 -163 177 -88 289 -169 438 -318 246 -246 390 -508
459 -836 28 -132 37 -360 20 -503 -11 -96 -62 -327 -74 -340 -3 -3 -33 3 -68
13 -146 41 -278 28 -379 -36 l-46 -29 14 -53 c38 -144 23 -306 -40 -421 -51
-93 -132 -146 -249 -161 -46 -6 -48 -7 -48 -40 0 -53 -34 -147 -74 -208 -83
-125 -219 -212 -415 -265 -84 -22 -116 -26 -256 -26 -141 -1 -166 2 -215 21
-45 17 -81 22 -195 25 -130 4 -147 7 -240 40 -55 19 -126 47 -157 61 l-58 27
0 -104 0 -104 72 -35 c65 -32 187 -75 259 -92 25 -6 27 -15 69 -208 41 -187
47 -204 76 -235 l33 -33 360 3 361 3 25 25 c21 21 32 58 69 233 24 115 47 211
49 214 3 3 58 22 122 44 l117 39 160 -141 c177 -156 200 -167 261 -131 46 26
455 328 490 360 15 14 31 42 37 61 10 36 -2 67 -133 352 l-35 76 59 84 c101
143 76 129 209 114 63 -8 165 -17 225 -20 108 -7 110 -7 133 18 16 17 53 118
118 323 92 293 104 347 84 383 -5 10 -95 67 -200 127 l-190 108 0 127 0 127
192 114 c152 90 195 120 203 142 8 23 -7 77 -94 339 -57 172 -110 322 -118
335 -25 40 -48 42 -269 16 -115 -13 -212 -23 -216 -22 -4 2 -41 48 -82 102
-73 97 -74 100 -62 130 7 17 45 106 85 198 39 92 71 178 71 192 0 14 -12 39
-27 55 -39 41 -520 380 -550 387 -39 10 -71 -11 -232 -159 l-150 -138 -98 31
c-54 18 -109 35 -122 39 -23 7 -28 22 -72 222 -42 188 -51 217 -74 237 -26 22
-28 22 -363 22 -273 -1 -342 -4 -363 -15z"/>
<path d="M264 3726 c-11 -44 10 -76 49 -76 137 0 588 -78 747 -129 l91 -29 14
35 c8 19 24 48 36 64 12 17 20 32 18 33 -2 2 -58 17 -124 34 -218 55 -387 78
-667 89 l-157 6 -7 -27z"/>
<path d="M2010 3591 c36 -93 53 -207 47 -310 -4 -53 -9 -108 -12 -122 -6 -25
-3 -27 72 -54 157 -55 281 -132 323 -199 30 -49 30 -134 0 -174 -22 -30 -20
-52 4 -52 7 0 33 18 58 40 62 54 90 122 96 230 14 288 -184 540 -528 669 -78
30 -81 29 -60 -28z"/>
<path d="M264 3564 c-4 -14 -2 -39 2 -57 l9 -31 175 -32 c222 -41 453 -93 573
-130 16 -5 18 1 15 72 l-3 78 -50 13 c-154 41 -592 113 -682 113 -27 0 -34 -5
-39 -26z"/>
<path d="M1323 3570 c-149 -76 -95 -302 72 -302 119 0 195 117 147 224 -38 87
-134 121 -219 78z m176 -64 c21 -25 9 -69 -21 -80 -50 -17 -89 42 -52 78 19
20 58 21 73 2z"/>
<path d="M1645 3413 c-13 -87 -61 -155 -140 -196 -56 -30 -164 -30 -221 0 -71
37 -134 126 -134 187 0 27 -35 43 -44 19 -30 -77 46 -257 133 -317 l37 -26
100 15 c54 8 134 15 178 15 92 0 267 -24 327 -45 23 -8 47 -15 54 -15 15 0 43
95 54 184 l7 67 -30 19 c-33 20 -257 122 -292 134 -19 6 -22 2 -29 -41z"/>
<path d="M264 3374 c-6 -25 1 -113 11 -122 10 -10 360 -116 525 -158 127 -33
203 -47 278 -51 56 -3 102 -3 102 1 0 4 -19 30 -41 59 -23 29 -50 71 -61 94
-20 46 -11 42 -173 82 -108 26 -598 121 -629 121 -3 0 -9 -12 -12 -26z"/>
<path d="M270 3141 c-18 -34 -9 -246 12 -266 2 -2 91 3 198 10 107 8 253 14
323 15 l128 0 60 42 59 42 -107 18 c-125 21 -299 62 -500 118 -78 22 -147 40
-152 40 -6 0 -15 -9 -21 -19z"/>
<path d="M2005 3012 c-9 -31 -18 -64 -21 -73 -3 -12 -21 -18 -62 -22 -60 -5
-151 -43 -136 -56 15 -13 90 -31 129 -31 32 0 36 -2 25 -15 -7 -8 -21 -15 -32
-15 -10 0 -16 -4 -13 -10 3 -5 1 -18 -5 -29 -10 -19 -12 -19 -58 -5 -81 27
-79 25 -47 39 l30 13 -28 11 c-47 18 -66 13 -113 -35 -110 -109 -139 -295 -67
-427 30 -54 79 -97 144 -127 56 -25 73 -25 127 1 42 21 44 24 39 55 -4 24 -2
34 7 34 20 0 47 35 36 46 -5 5 -6 22 -2 39 8 28 13 30 67 36 40 5 63 13 72 25
28 39 9 132 -60 291 -41 94 -37 105 36 109 53 2 78 33 85 102 5 54 10 49 -85
82 l-52 19 -16 -57z"/>
<path d="M1410 3039 c-138 -15 -303 -68 -373 -121 -16 -12 -5 -14 81 -15 234
-4 353 -54 381 -160 7 -26 7 -26 34 19 34 59 90 117 146 152 50 32 142 66 178
66 35 0 27 16 -14 28 -109 31 -301 45 -433 31z"/>
<path d="M580 2839 c-202 -11 -292 -24 -307 -45 -17 -23 -17 -105 0 -126 10
-13 48 -17 232 -22 121 -3 263 -10 315 -16 102 -11 333 -48 357 -57 10 -4 8 6
-8 36 -30 57 -23 127 18 185 l30 43 -150 6 c-174 8 -298 7 -487 -4z"/>
<path d="M1250 2772 c-57 -58 -45 -153 25 -186 41 -20 68 -20 105 -1 42 21 60
53 60 103 0 37 -6 50 -34 78 -29 29 -41 34 -81 34 -38 0 -52 -5 -75 -28z m120
-42 c40 -40 13 -100 -45 -100 -40 0 -55 16 -55 56 0 56 61 83 100 44z"/>
<path d="M1290 2685 c0 -10 11 -15 35 -15 24 0 35 5 35 15 0 10 -11 15 -35 15
-24 0 -35 -5 -35 -15z"/>
<path d="M289 2583 c-22 -5 -28 -58 -22 -187 5 -82 9 -106 20 -106 8 0 74 36
148 79 73 44 189 108 257 143 l123 62 -55 7 c-60 8 -445 9 -471 2z"/>
<path d="M1450 2560 c-14 -14 -33 -29 -43 -35 -15 -9 -14 -15 11 -64 28 -56
145 -191 156 -180 4 4 -7 28 -23 54 -36 57 -58 121 -69 195 l-7 55 -25 -25z"/>
<path d="M855 2558 c-45 -25 -328 -207 -447 -286 -105 -70 -131 -92 -148 -126
-31 -66 -44 -190 -31 -302 12 -99 39 -195 56 -201 6 -2 51 63 100 144 192 314
353 548 484 698 42 48 56 72 48 77 -17 11 -39 9 -62 -4z"/>
<path d="M946 2469 c-190 -241 -414 -598 -580 -929 -168 -333 -166 -326 -99
-401 76 -84 202 -126 404 -136 l126 -6 7 149 c25 534 104 962 241 1301 19 48
33 88 32 90 -2 1 -17 6 -34 9 -29 6 -35 1 -97 -77z"/>
<path d="M1112 2451 c-70 -182 -122 -481 -143 -816 -14 -219 -6 -662 11 -679
7 -7 70 -12 158 -14 170 -4 275 15 391 70 92 43 190 143 219 221 35 93 31 106
-40 147 -77 44 -196 154 -252 234 -137 192 -199 418 -199 719 l0 167 -36 9
c-86 21 -77 26 -109 -58z"/>
<path d="M1292 2378 c18 -378 229 -752 501 -888 98 -49 139 -58 182 -37 59 28
122 121 161 237 21 63 26 222 8 240 -9 9 -29 6 -79 -9 -156 -48 -329 -3 -491
127 -116 94 -227 261 -255 387 -20 92 -32 66 -27 -57z"/>
<path d="M1344 2463 c3 -16 28 -71 53 -123 107 -214 345 -378 516 -356 53 7
135 44 156 70 12 14 10 16 -16 16 -45 0 -120 26 -163 55 -30 21 -54 28 -99 30
-89 5 -162 30 -228 78 -76 57 -124 113 -162 193 -19 40 -37 64 -47 64 -12 0
-15 -6 -10 -27z"/>
</g>
</svg>
